<?xml version="1.0" encoding="UTF-8"?>
<svg version="1.1" xmlns="http://www.w3.org/2000/svg" width="34" height="34">
<path d="M0 0 C0.97582031 0.20367187 1.95164062 0.40734375 2.95703125 0.6171875 C3.69308594 0.78476562 4.42914062 0.95234375 5.1875 1.125 C5.1875 0.465 5.1875 -0.195 5.1875 -0.875 C6.5075 -0.875 7.8275 -0.875 9.1875 -0.875 C9.1875 -0.215 9.1875 0.445 9.1875 1.125 C10.156875 1.24875 11.12625 1.3725 12.125 1.5 C13.6409375 1.809375 13.6409375 1.809375 15.1875 2.125 C17.30844354 6.36688707 16.41690069 11.96440718 16.4375 16.625 C16.458125 17.79160156 16.47875 18.95820313 16.5 20.16015625 C16.50515625 21.27261719 16.5103125 22.38507812 16.515625 23.53125 C16.52964355 25.06749023 16.52964355 25.06749023 16.54394531 26.63476562 C16.36750488 27.86743164 16.36750488 27.86743164 16.1875 29.125 C11.51504625 32.23996916 6.68164246 31.45350857 1.1875 31.4375 C-0.47152344 31.46166992 -0.47152344 31.46166992 -2.1640625 31.48632812 C-3.22367188 31.48697266 -4.28328125 31.48761719 -5.375 31.48828125 C-6.83099609 31.49275269 -6.83099609 31.49275269 -8.31640625 31.49731445 C-10.8125 31.125 -10.8125 31.125 -12.62744141 29.94213867 C-14.25529645 27.44602719 -14.20058888 25.65607463 -14.2109375 22.6875 C-14.21480469 21.62789062 -14.21867188 20.56828125 -14.22265625 19.4765625 C-14.21105469 18.37054687 -14.19945312 17.26453125 -14.1875 16.125 C-14.19910156 15.01898438 -14.21070313 13.91296875 -14.22265625 12.7734375 C-14.21878906 11.71382812 -14.21492187 10.65421875 -14.2109375 9.5625 C-14.20755371 8.59183594 -14.20416992 7.62117187 -14.20068359 6.62109375 C-13.74895895 3.71641903 -13.11447545 2.88347755 -10.8125 1.125 C-6.84642174 -0.99468552 -4.3486219 -0.94307463 0 0 Z " fill="#5BCC59" transform="translate(15.8125,1.875)"/>
<path d="M0 0 C3.3 0 6.6 0 10 0 C10.08069658 2.95887459 10.14034665 5.9155659 10.1875 8.875 C10.21263672 9.71675781 10.23777344 10.55851562 10.26367188 11.42578125 C10.27333984 12.23144531 10.28300781 13.03710938 10.29296875 13.8671875 C10.3086792 14.61081543 10.32438965 15.35444336 10.34057617 16.12060547 C10.22818604 16.74080566 10.1157959 17.36100586 10 18 C6.95318939 20.03120707 6.39881676 20.24659875 2.98828125 20.1953125 C2.23095703 20.18886719 1.47363281 20.18242188 0.69335938 20.17578125 C-0.09232422 20.15902344 -0.87800781 20.14226563 -1.6875 20.125 C-2.48478516 20.11597656 -3.28207031 20.10695313 -4.10351562 20.09765625 C-6.069139 20.07411585 -8.03460775 20.03824547 -10 20 C-10 16.7 -10 13.4 -10 10 C-6.7 10 -3.4 10 0 10 C0 6.7 0 3.4 0 0 Z " fill="#14AC4D" transform="translate(22,13)"/>
<path d="M0 0 C6.6 0 13.2 0 20 0 C20 3.3 20 6.6 20 10 C16.7 10 13.4 10 10 10 C10 13.3 10 16.6 10 20 C3.49959631 20.36794738 3.49959631 20.36794738 1.2878418 18.73901367 C-0.27556408 16.62789707 -0.35164149 15.58943959 -0.29296875 12.98828125 C-0.28547607 12.30548096 -0.2779834 11.62268066 -0.27026367 10.91918945 C-0.24295166 10.05898193 -0.21563965 9.19877441 -0.1875 8.3125 C-0.125625 5.569375 -0.06375 2.82625 0 0 Z " fill="#74DB65" transform="translate(2,13)"/>
<path d="M0 0 C2.64 0 5.28 0 8 0 C8 2.64 8 5.28 8 8 C5.36 8 2.72 8 0 8 C0 5.36 0 2.72 0 0 Z " fill="#0DA84C" transform="translate(23,14)"/>
<path d="M0 0 C1.32 0 2.64 0 4 0 C4 1.65 4 3.3 4 5 C2.68 5 1.36 5 0 5 C0 3.35 0 1.7 0 0 Z " fill="#14AB4D" transform="translate(21,1)"/>
<path d="M0 0 C2.0625 0.4375 2.0625 0.4375 4 1 C3.67 2.65 3.34 4.3 3 6 C2.01 6 1.02 6 0 6 C-0.38218767 4.34385343 -0.71395102 2.67542976 -1 1 C-0.67 0.67 -0.34 0.34 0 0 Z " fill="#11A94C" transform="translate(10,1)"/>
</svg>
