<svg width="201" height="25" viewBox="0 0 201 25" fill="none" xmlns="http://www.w3.org/2000/svg">
<path d="M19.312 24.0003H14.832L4.68801 8.67231V24.0003H0.208008V1.63231H4.68801L14.832 16.9923V1.63231H19.312V24.0003Z" fill="black"/>
<path d="M39.8993 14.7523C39.8993 15.3923 39.8566 15.9683 39.7713 16.4803H26.8113C26.9179 17.7603 27.3659 18.763 28.1553 19.4883C28.9446 20.2136 29.9153 20.5763 31.0673 20.5763C32.7313 20.5763 33.9153 19.8616 34.6193 18.4323H39.4513C38.9393 20.139 37.9579 21.547 36.5073 22.6563C35.0566 23.7443 33.2753 24.2883 31.1633 24.2883C29.4566 24.2883 27.9206 23.915 26.5553 23.1683C25.2113 22.4003 24.1553 21.323 23.3873 19.9363C22.6406 18.5496 22.2673 16.9496 22.2673 15.1363C22.2673 13.3016 22.6406 11.691 23.3873 10.3043C24.1339 8.91765 25.1793 7.85098 26.5233 7.10431C27.8673 6.35765 29.4139 5.98431 31.1633 5.98431C32.8486 5.98431 34.3526 6.34698 35.6753 7.07231C37.0193 7.79765 38.0539 8.83231 38.7793 10.1763C39.5259 11.499 39.8993 13.0243 39.8993 14.7523ZM35.2593 13.4723C35.2379 12.3203 34.8219 11.403 34.0113 10.7203C33.2006 10.0163 32.2086 9.66431 31.0353 9.66431C29.9259 9.66431 28.9873 10.0056 28.2193 10.6883C27.4726 11.3496 27.0139 12.2776 26.8433 13.4723H35.2593Z" fill="black"/>
<path d="M59.3293 14.7523C59.3293 15.3923 59.2866 15.9683 59.2013 16.4803H46.2413C46.3479 17.7603 46.7959 18.763 47.5853 19.4883C48.3746 20.2136 49.3453 20.5763 50.4973 20.5763C52.1613 20.5763 53.3453 19.8616 54.0493 18.4323H58.8813C58.3693 20.139 57.3879 21.547 55.9373 22.6563C54.4866 23.7443 52.7053 24.2883 50.5933 24.2883C48.8866 24.2883 47.3506 23.915 45.9853 23.1683C44.6413 22.4003 43.5853 21.323 42.8173 19.9363C42.0706 18.5496 41.6973 16.9496 41.6973 15.1363C41.6973 13.3016 42.0706 11.691 42.8173 10.3043C43.5639 8.91765 44.6093 7.85098 45.9533 7.10431C47.2973 6.35765 48.8439 5.98431 50.5933 5.98431C52.2786 5.98431 53.7826 6.34698 55.1053 7.07231C56.4493 7.79765 57.4839 8.83231 58.2093 10.1763C58.9559 11.499 59.3293 13.0243 59.3293 14.7523ZM54.6893 13.4723C54.6679 12.3203 54.2519 11.403 53.4413 10.7203C52.6306 10.0163 51.6386 9.66431 50.4653 9.66431C49.3559 9.66431 48.4173 10.0056 47.6493 10.6883C46.9026 11.3496 46.4439 12.2776 46.2733 13.4723H54.6893Z" fill="black"/>
<path d="M67.4953 9.95231V18.5283C67.4953 19.1256 67.6339 19.563 67.9113 19.8403C68.2099 20.0963 68.7006 20.2243 69.3833 20.2243H71.4633V24.0003H68.6473C64.8713 24.0003 62.9833 22.1656 62.9833 18.4963V9.95231H60.8713V6.27231H62.9833V1.88831H67.4953V6.27231H71.4633V9.95231H67.4953Z" fill="black"/>
<path d="M82.2375 24.2883C80.5308 24.2883 78.9948 23.915 77.6295 23.1683C76.2642 22.4003 75.1868 21.323 74.3975 19.9363C73.6295 18.5496 73.2455 16.9496 73.2455 15.1363C73.2455 13.323 73.6402 11.723 74.4295 10.3363C75.2402 8.94965 76.3388 7.88298 77.7255 7.13631C79.1122 6.36831 80.6588 5.98431 82.3655 5.98431C84.0722 5.98431 85.6188 6.36831 87.0055 7.13631C88.3922 7.88298 89.4802 8.94965 90.2695 10.3363C91.0802 11.723 91.4855 13.323 91.4855 15.1363C91.4855 16.9496 91.0695 18.5496 90.2375 19.9363C89.4268 21.323 88.3175 22.4003 86.9095 23.1683C85.5228 23.915 83.9655 24.2883 82.2375 24.2883ZM82.2375 20.3843C83.0482 20.3843 83.8055 20.1923 84.5095 19.8083C85.2348 19.403 85.8108 18.8056 86.2375 18.0163C86.6642 17.227 86.8775 16.267 86.8775 15.1363C86.8775 13.451 86.4295 12.1603 85.5335 11.2643C84.6588 10.347 83.5815 9.88831 82.3015 9.88831C81.0215 9.88831 79.9442 10.347 79.0695 11.2643C78.2162 12.1603 77.7895 13.451 77.7895 15.1363C77.7895 16.8216 78.2055 18.123 79.0375 19.0403C79.8908 19.9363 80.9575 20.3843 82.2375 20.3843Z" fill="black"/>
<path d="M93.3638 12.8003C93.3638 10.603 93.8544 8.64031 94.8358 6.91231C95.8384 5.16298 97.1931 3.80831 98.8998 2.84831C100.628 1.86698 102.558 1.37631 104.692 1.37631C107.188 1.37631 109.374 2.01631 111.252 3.29631C113.129 4.57631 114.441 6.34698 115.188 8.60831H110.036C109.524 7.54165 108.798 6.74165 107.86 6.20831C106.942 5.67498 105.876 5.40831 104.66 5.40831C103.358 5.40831 102.196 5.71765 101.172 6.33631C100.169 6.93364 99.3798 7.78698 98.8038 8.89631C98.2491 10.0056 97.9718 11.307 97.9718 12.8003C97.9718 14.2723 98.2491 15.5736 98.8038 16.7043C99.3798 17.8136 100.169 18.6776 101.172 19.2963C102.196 19.8936 103.358 20.1923 104.66 20.1923C105.876 20.1923 106.942 19.9256 107.86 19.3923C108.798 18.8376 109.524 18.027 110.036 16.9603H115.188C114.441 19.243 113.129 21.0243 111.252 22.3043C109.396 23.563 107.209 24.1923 104.692 24.1923C102.558 24.1923 100.628 23.7123 98.8998 22.7523C97.1931 21.771 95.8384 20.4163 94.8358 18.6883C93.8544 16.9603 93.3638 14.9976 93.3638 12.8003Z" fill="black"/>
<path d="M117.542 15.0723C117.542 13.2803 117.894 11.691 118.598 10.3043C119.324 8.91765 120.294 7.85098 121.51 7.10431C122.748 6.35765 124.124 5.98431 125.638 5.98431C126.961 5.98431 128.113 6.25098 129.094 6.78431C130.097 7.31765 130.897 7.98965 131.494 8.80031V6.27231H136.006V24.0003H131.494V21.4083C130.918 22.2403 130.118 22.9336 129.094 23.4883C128.092 24.0216 126.929 24.2883 125.606 24.2883C124.113 24.2883 122.748 23.9043 121.51 23.1363C120.294 22.3683 119.324 21.291 118.598 19.9043C117.894 18.4963 117.542 16.8856 117.542 15.0723ZM131.494 15.1363C131.494 14.0483 131.281 13.1203 130.854 12.3523C130.428 11.563 129.852 10.9656 129.126 10.5603C128.401 10.1336 127.622 9.92031 126.79 9.92031C125.958 9.92031 125.19 10.123 124.486 10.5283C123.782 10.9336 123.206 11.531 122.758 12.3203C122.332 13.0883 122.118 14.0056 122.118 15.0723C122.118 16.139 122.332 17.0776 122.758 17.8883C123.206 18.6776 123.782 19.2856 124.486 19.7123C125.212 20.139 125.98 20.3523 126.79 20.3523C127.622 20.3523 128.401 20.1496 129.126 19.7443C129.852 19.3176 130.428 18.7203 130.854 17.9523C131.281 17.163 131.494 16.2243 131.494 15.1363Z" fill="black"/>
<path d="M144.542 0.320312V24.0003H140.062V0.320312H144.542Z" fill="black"/>
<path d="M169.553 19.4563H160.241L158.641 24.0003H154.833L162.801 1.72831H167.025L174.993 24.0003H171.153L169.553 19.4563ZM168.529 16.4803L164.913 6.14431L161.265 16.4803H168.529Z" fill="black"/>
<path d="M193.69 8.38431C193.69 9.51498 193.423 10.5816 192.89 11.5843C192.356 12.587 191.503 13.4083 190.33 14.0483C189.156 14.667 187.652 14.9763 185.818 14.9763H181.786V24.0003H178.138V1.76031H185.818C187.524 1.76031 188.964 2.05898 190.138 2.65631C191.332 3.23231 192.218 4.02164 192.794 5.02431C193.391 6.02698 193.69 7.14698 193.69 8.38431ZM185.818 12.0003C187.204 12.0003 188.239 11.691 188.922 11.0723C189.604 10.4323 189.946 9.53631 189.946 8.38431C189.946 5.95231 188.57 4.73631 185.818 4.73631H181.786V12.0003H185.818Z" fill="black"/>
<path d="M200.497 1.76031V24.0003H196.849V1.76031H200.497Z" fill="black"/>
</svg>
