<svg width="1061.602" height="91.231" viewBox="0 0 1061.602 91.231" xmlns="http://www.w3.org/2000/svg"><g id="svgGroup" stroke-linecap="round" fill-rule="evenodd" font-size="9pt" stroke="#000000" stroke-width="0.25mm" fill="#000000" style="stroke:#000000;stroke-width:0.25mm;fill:#000000"><path d="M 42.012 90 L 14.297 31.289 L 14.238 90 L 0 90 L 0 4.688 L 14.297 4.688 L 41.836 63.164 L 41.953 4.688 L 56.133 4.688 L 56.133 90 L 42.012 90 Z M 1061.602 4.688 L 1061.602 16.348 L 1043.379 16.348 L 1043.379 78.398 L 1061.602 78.398 L 1061.602 90 L 1011.328 90 L 1011.328 78.398 L 1029.141 78.398 L 1029.141 16.348 L 1011.328 16.348 L 1011.328 4.688 L 1061.602 4.688 Z M 375.352 56.895 L 375.352 90 L 361.289 90 L 361.289 4.688 L 388.359 4.688 Q 394.98 4.746 400.547 6.387 Q 406.113 8.027 410.156 11.191 Q 414.141 14.414 416.367 19.189 Q 418.594 23.965 418.594 30.352 Q 418.594 34.746 417.451 38.32 Q 416.309 41.895 414.258 44.766 Q 412.207 47.637 409.336 49.805 Q 406.465 51.973 402.949 53.555 L 421.172 89.238 L 421.172 90 L 406.113 90 L 389.766 56.895 L 375.352 56.895 Z M 245.566 26.602 L 245.566 11.133 L 231.504 11.133 L 231.504 26.602 L 216.152 26.602 L 216.152 37.09 L 231.504 37.09 L 231.504 68.262 Q 231.504 74.355 233.115 78.691 Q 234.727 83.027 237.598 85.781 Q 240.469 88.594 244.482 89.912 Q 248.496 91.23 253.301 91.23 Q 255.938 91.23 258.604 90.967 Q 261.27 90.703 263.73 90.234 Q 266.191 89.766 268.33 89.092 Q 270.469 88.418 271.992 87.48 L 270.469 77.813 Q 269.414 78.047 267.861 78.369 Q 266.309 78.691 264.551 78.926 Q 262.734 79.219 260.801 79.395 Q 258.867 79.57 257.051 79.57 Q 254.531 79.57 252.422 78.984 Q 250.313 78.398 248.789 76.992 Q 247.266 75.645 246.416 73.271 Q 245.566 70.898 245.566 67.383 L 245.566 37.09 L 269.414 37.09 L 269.414 26.602 L 245.566 26.602 Z M 517.91 59.355 Q 517.91 63.223 518.643 66.943 Q 519.375 70.664 521.133 73.477 Q 522.832 76.406 525.762 78.164 Q 528.691 79.922 533.086 79.922 Q 535.723 79.922 538.154 79.131 Q 540.586 78.34 542.461 76.875 Q 544.277 75.41 545.361 73.418 Q 546.445 71.426 546.445 69.023 L 559.629 69.023 Q 559.688 73.652 557.549 77.725 Q 555.41 81.797 551.777 84.727 Q 548.086 87.773 543.311 89.502 Q 538.535 91.23 533.262 91.23 Q 525.938 91.23 520.459 88.682 Q 514.98 86.133 511.348 81.797 Q 507.656 77.461 505.781 71.689 Q 503.906 65.918 503.906 59.355 L 503.906 57.305 Q 503.906 50.801 505.752 45 Q 507.598 39.199 511.289 34.863 Q 514.98 30.527 520.459 27.979 Q 525.938 25.43 533.203 25.43 Q 538.945 25.43 543.838 27.188 Q 548.73 28.945 552.246 32.109 Q 555.762 35.273 557.725 39.668 Q 559.688 44.063 559.629 49.336 L 546.445 49.336 Q 546.445 46.758 545.479 44.473 Q 544.512 42.188 542.754 40.488 Q 540.938 38.789 538.447 37.793 Q 535.957 36.797 533.086 36.797 Q 528.691 36.797 525.791 38.584 Q 522.891 40.371 521.191 43.242 Q 519.375 46.113 518.643 49.805 Q 517.91 53.496 517.91 57.305 L 517.91 59.355 Z M 879.844 70.371 L 874.043 90 L 859.395 90 L 887.168 4.688 L 899.648 4.688 L 926.953 90 L 912.363 90 L 906.621 70.371 L 879.844 70.371 Z M 719.648 57.832 Q 719.648 50.625 721.377 44.678 Q 723.105 38.73 726.387 34.453 Q 729.609 30.176 734.268 27.803 Q 738.926 25.43 744.785 25.43 Q 750.059 25.43 754.014 27.275 Q 757.969 29.121 761.016 32.52 L 761.016 0 L 775.02 0 L 775.02 90 L 762.305 90 L 761.66 83.379 Q 758.613 87.129 754.395 89.15 Q 750.176 91.172 744.668 91.172 Q 738.867 91.172 734.238 88.74 Q 729.609 86.309 726.387 81.973 Q 723.164 77.695 721.406 71.807 Q 719.648 65.918 719.648 59.063 L 719.648 57.832 Z M 128.496 79.336 Q 125.332 83.906 118.799 87.539 Q 112.266 91.172 103.008 91.172 Q 95.977 91.172 90.146 88.828 Q 84.316 86.484 80.156 82.324 Q 75.996 78.223 73.74 72.627 Q 71.484 67.031 71.484 60.527 L 71.484 58.125 Q 71.484 50.684 73.828 44.648 Q 76.172 38.613 80.273 34.336 Q 84.375 30.059 89.795 27.744 Q 95.215 25.43 101.367 25.43 Q 108.223 25.43 113.496 27.744 Q 118.77 30.059 122.344 34.16 Q 125.918 38.32 127.734 44.063 Q 129.551 49.805 129.551 56.602 L 129.551 62.637 L 85.605 62.637 L 85.605 62.93 Q 86.25 67.09 87.598 69.902 Q 88.945 72.715 91.289 74.941 Q 93.633 77.285 96.826 78.574 Q 100.02 79.863 103.828 79.863 Q 109.043 79.863 113.555 77.842 Q 118.066 75.82 120.996 72.07 L 128.496 79.336 Z M 200.508 79.336 Q 197.344 83.906 190.811 87.539 Q 184.277 91.172 175.02 91.172 Q 167.988 91.172 162.158 88.828 Q 156.328 86.484 152.168 82.324 Q 148.008 78.223 145.752 72.627 Q 143.496 67.031 143.496 60.527 L 143.496 58.125 Q 143.496 50.684 145.84 44.648 Q 148.184 38.613 152.285 34.336 Q 156.387 30.059 161.807 27.744 Q 167.227 25.43 173.379 25.43 Q 180.234 25.43 185.508 27.744 Q 190.781 30.059 194.355 34.16 Q 197.93 38.32 199.746 44.063 Q 201.563 49.805 201.563 56.602 L 201.563 62.637 L 157.617 62.637 L 157.617 62.93 Q 158.262 67.09 159.609 69.902 Q 160.957 72.715 163.301 74.941 Q 165.645 77.285 168.838 78.574 Q 172.031 79.863 175.84 79.863 Q 181.055 79.863 185.566 77.842 Q 190.078 75.82 193.008 72.07 L 200.508 79.336 Z M 488.555 79.336 Q 485.391 83.906 478.857 87.539 Q 472.324 91.172 463.066 91.172 Q 456.035 91.172 450.205 88.828 Q 444.375 86.484 440.215 82.324 Q 436.055 78.223 433.799 72.627 Q 431.543 67.031 431.543 60.527 L 431.543 58.125 Q 431.543 50.684 433.887 44.648 Q 436.23 38.613 440.332 34.336 Q 444.434 30.059 449.854 27.744 Q 455.273 25.43 461.426 25.43 Q 468.281 25.43 473.555 27.744 Q 478.828 30.059 482.402 34.16 Q 485.977 38.32 487.793 44.063 Q 489.609 49.805 489.609 56.602 L 489.609 62.637 L 445.664 62.637 L 445.664 62.93 Q 446.309 67.09 447.656 69.902 Q 449.004 72.715 451.348 74.941 Q 453.691 77.285 456.885 78.574 Q 460.078 79.863 463.887 79.863 Q 469.102 79.863 473.613 77.842 Q 478.125 75.82 481.055 72.07 L 488.555 79.336 Z M 952.324 90 L 938.262 90 L 938.262 4.688 L 966.797 4.688 Q 973.242 4.746 978.662 6.621 Q 984.082 8.496 988.008 11.953 Q 991.934 15.41 994.102 20.332 Q 996.27 25.254 996.27 31.406 Q 996.27 37.324 994.102 42.1 Q 991.934 46.875 988.008 50.273 Q 984.082 53.73 978.662 55.605 Q 973.242 57.48 966.797 57.48 L 952.324 57.48 L 952.324 90 Z M 672.07 36.855 Q 675.938 31.523 681.357 28.477 Q 686.777 25.43 693.34 25.43 Q 696.738 25.43 699.932 25.898 Q 703.125 26.367 704.941 27.012 L 702.949 40.84 Q 699.727 40.137 696.592 39.785 Q 693.457 39.434 690.352 39.434 Q 686.836 39.434 684.023 40.137 Q 681.211 40.84 679.043 42.305 Q 676.699 43.711 675.059 45.879 Q 673.418 48.047 672.305 50.859 L 672.305 90 L 658.301 90 L 658.301 26.602 L 671.426 26.602 L 672.012 35.391 L 672.07 36.855 Z M 286.875 57.715 Q 286.875 50.801 288.867 44.912 Q 290.859 39.023 294.668 34.688 Q 298.418 30.352 303.867 27.891 Q 309.316 25.43 316.289 25.43 Q 323.262 25.43 328.74 27.891 Q 334.219 30.352 338.027 34.688 Q 341.777 39.023 343.77 44.912 Q 345.762 50.801 345.762 57.715 L 345.762 58.945 Q 345.762 65.918 343.77 71.777 Q 341.777 77.637 338.027 81.973 Q 334.277 86.309 328.799 88.77 Q 323.32 91.23 316.406 91.23 Q 309.434 91.23 303.926 88.77 Q 298.418 86.309 294.668 81.973 Q 290.859 77.637 288.867 71.777 Q 286.875 65.918 286.875 58.945 L 286.875 57.715 Z M 574.922 57.715 Q 574.922 50.801 576.914 44.912 Q 578.906 39.023 582.715 34.688 Q 586.465 30.352 591.914 27.891 Q 597.363 25.43 604.336 25.43 Q 611.309 25.43 616.787 27.891 Q 622.266 30.352 626.074 34.688 Q 629.824 39.023 631.816 44.912 Q 633.809 50.801 633.809 57.715 L 633.809 58.945 Q 633.809 65.918 631.816 71.777 Q 629.824 77.637 626.074 81.973 Q 622.324 86.309 616.846 88.77 Q 611.367 91.23 604.453 91.23 Q 597.48 91.23 591.973 88.77 Q 586.465 86.309 582.715 81.973 Q 578.906 77.637 576.914 71.777 Q 574.922 65.918 574.922 58.945 L 574.922 57.715 Z M 300.879 58.945 L 300.879 57.715 Q 300.879 53.555 301.787 49.746 Q 302.695 45.938 304.629 43.066 Q 306.504 40.195 309.404 38.496 Q 312.305 36.797 316.289 36.797 Q 320.332 36.797 323.232 38.496 Q 326.133 40.195 328.066 43.066 Q 329.883 45.938 330.82 49.746 Q 331.758 53.555 331.758 57.715 L 331.758 58.945 Q 331.758 63.223 330.85 67.031 Q 329.941 70.84 328.066 73.711 Q 326.191 76.582 323.262 78.252 Q 320.332 79.922 316.406 79.922 Q 312.363 79.922 309.434 78.252 Q 306.504 76.582 304.629 73.711 Q 302.695 70.84 301.787 67.031 Q 300.879 63.223 300.879 58.945 Z M 588.926 58.945 L 588.926 57.715 Q 588.926 53.555 589.834 49.746 Q 590.742 45.938 592.676 43.066 Q 594.551 40.195 597.451 38.496 Q 600.352 36.797 604.336 36.797 Q 608.379 36.797 611.279 38.496 Q 614.18 40.195 616.113 43.066 Q 617.93 45.938 618.867 49.746 Q 619.805 53.555 619.805 57.715 L 619.805 58.945 Q 619.805 63.223 618.896 67.031 Q 617.988 70.84 616.113 73.711 Q 614.238 76.582 611.309 78.252 Q 608.379 79.922 604.453 79.922 Q 600.41 79.922 597.48 78.252 Q 594.551 76.582 592.676 73.711 Q 590.742 70.84 589.834 67.031 Q 588.926 63.223 588.926 58.945 Z M 733.652 59.063 L 733.652 57.832 Q 733.652 53.555 734.473 49.775 Q 735.293 45.996 737.109 43.125 Q 738.809 40.254 741.592 38.613 Q 744.375 36.973 748.301 36.973 Q 752.988 36.973 756.064 39.053 Q 759.141 41.133 761.016 44.648 L 761.016 71.895 Q 759.141 75.469 756.035 77.549 Q 752.93 79.629 748.184 79.629 Q 744.316 79.629 741.563 78.018 Q 738.809 76.406 737.051 73.535 Q 735.293 70.781 734.473 67.031 Q 733.652 63.281 733.652 59.063 Z M 966.797 45.996 L 952.324 45.996 L 952.324 16.172 L 966.797 16.172 Q 970.371 16.23 973.213 17.344 Q 976.055 18.457 978.047 20.508 Q 980.039 22.559 981.064 25.342 Q 982.09 28.125 982.09 31.523 Q 982.09 34.629 981.064 37.266 Q 980.039 39.902 978.047 41.836 Q 976.055 43.77 973.213 44.854 Q 970.371 45.938 966.797 45.996 Z M 388.535 45.41 L 375.352 45.41 L 375.352 16.172 L 388.359 16.172 Q 391.992 16.23 394.922 17.139 Q 397.852 18.047 399.902 19.805 Q 402.129 21.68 403.271 24.463 Q 404.414 27.246 404.414 30.938 Q 404.414 34.219 403.359 36.797 Q 402.305 39.375 400.43 41.133 Q 398.32 43.184 395.303 44.268 Q 392.285 45.352 388.535 45.41 Z M 903.164 58.301 L 883.418 58.301 L 893.379 24.551 L 903.164 58.301 Z M 115.723 51.445 L 115.723 52.383 L 85.898 52.383 Q 86.543 48.75 87.891 45.879 Q 89.238 43.008 91.23 40.957 Q 93.223 38.965 95.771 37.881 Q 98.32 36.797 101.309 36.797 Q 104.824 36.797 107.49 37.998 Q 110.156 39.199 111.914 41.191 Q 113.73 43.242 114.727 45.967 Q 115.723 48.691 115.723 51.445 Z M 187.734 51.445 L 187.734 52.383 L 157.91 52.383 Q 158.555 48.75 159.902 45.879 Q 161.25 43.008 163.242 40.957 Q 165.234 38.965 167.783 37.881 Q 170.332 36.797 173.32 36.797 Q 176.836 36.797 179.502 37.998 Q 182.168 39.199 183.926 41.191 Q 185.742 43.242 186.738 45.967 Q 187.734 48.691 187.734 51.445 Z M 475.781 51.445 L 475.781 52.383 L 445.957 52.383 Q 446.602 48.75 447.949 45.879 Q 449.297 43.008 451.289 40.957 Q 453.281 38.965 455.83 37.881 Q 458.379 36.797 461.367 36.797 Q 464.883 36.797 467.549 37.998 Q 470.215 39.199 471.973 41.191 Q 473.789 43.242 474.785 45.967 Q 475.781 48.691 475.781 51.445 Z" vector-effect="non-scaling-stroke"/></g></svg>